<svg xmlns="http://www.w3.org/2000/svg" viewBox="0 0 122 12">
  <defs>
    <linearGradient id="logo_empressiacolor-a" x1="99.868%" x2="1.849%" y1="49.807%" y2="49.807%">
      <stop offset="0%" stop-color="#97E6F5"/>
      <stop offset="100%" stop-color="#97E6F5"/>
    </linearGradient>
  </defs>
  <g fill="none">
    <path fill="#0C226E" d="M121.688922 10.1292011L117.204516 1.20228263C116.807029.327129919 115.662075.359001032 115.232516 1.20228263L110.668533 10.1292011C110.350423 10.7974922 110.668533 11.3701701 111.177268 11.6568096 111.749745 11.7680579 112.338258 11.6568096 112.592626 11.1158025L113.276552 9.71547797 119.144445 9.71547797 119.844006 11.1158025C120.416684 12.3567714 122.340977 11.3703705 121.688922 10.1292011zM114.262351 7.61499119L116.218516 3.68462143 118.015526 7.61499119 114.262351 7.61499119zM103.249178 10.686244C103.249178 12.0386616 105.348462 12.006991 105.348462 10.686244L105.348462 1.60017043C105.348462.247552359 103.249178.295258806 103.249178 1.60017043L103.249178 10.686244zM95.5435847 8.4901439C95.3050524 10.7495854 91.9495654 10.0812942 90.6454555 9.19030616 90.1048493 8.74471192 89.6436202 8.88783126 89.2300975 9.30155439 88.9438588 9.73151375 88.927823 10.4314756 89.4525939 10.861034 91.6470905 12.6750817 97.4993485 12.5794683 97.6103963 8.53785035 97.721845 4.30500568 90.8042098 5.80094354 91.2335678 3.19132074 91.5675129 1.5364282 94.2390739 1.88640911 95.4158998 2.63427782 96.3700287 3.33444008 97.5149834 1.95015134 96.4335705 1.07499862 94.2390739-.61176502 89.5796775-.0549225477 89.2138613 3.03216562 88.7213624 7.55144941 95.3367231 6.13508911 95.5435847 8.4901439zM81.8109433 8.4901439C81.5726115 10.7495854 78.2171244 10.0812942 76.9130146 9.19030616 76.3724084 8.74471192 75.9111792 8.88783126 75.4976565 9.30155439 75.2114179 9.73151375 75.1953821 10.4314756 75.720153 10.861034 77.9146495 12.6750817 83.7669076 12.5794683 83.8779553 8.53785035 83.989404 4.30500568 77.0717688 5.80094354 77.5011268 3.19132074 77.835072 1.5364282 80.506633 1.88640911 81.6834588 2.63427782 82.6375877 3.33444008 83.7825425 1.95015134 82.7011295 1.07499862 80.506633-.61176502 75.8472366-.0549225477 75.4814203 3.03216562 74.988721 7.55144941 81.6040817 6.13508911 81.8109433 8.4901439zM69.143679 11.6568096C70.7021564 11.6568096 70.5909082 9.57215818 69.143679 9.57215818L64.2934568 9.57215818 64.2934568 7.18543272 68.3009988 7.18543272C69.7163568 7.18543272 69.7163568 5.10098173 68.3009988 5.10098173L64.2934568 5.10098173 64.2934568 2.71405582 68.8734761 2.71405582C70.30487 2.71405582 70.3365406.645440159 68.8734761.645440159L63.1645379.645440159C62.6082967.645440159 62.1787383 1.05916329 62.1787383 1.63204154L62.1787383 10.6704087C62.1787383 11.2270507 62.6082967 11.6570101 63.1645379 11.6570101L69.143679 11.6570101 69.143679 11.6568096zM56.540157 9.98588131L54.425238 7.40812962C57.7965604 6.05551155 56.969515.645440159 52.9303024.645440159L48.700264.645440159C48.1754931.645440159 47.7461351 1.05916329 47.7461351 1.61600576L47.7461351 10.6541725C47.7461351 12.054497 49.8610541 12.0067905 49.8610541 10.6225018L49.8610541 7.7422752 52.3578251 7.7422752 54.7589827 11.1793443C55.7133121 12.388843 57.3672024 11.2114158 56.540157 9.98588131zM52.9305029 5.91239221L49.8612545 5.91239221 49.8612545 2.57073604 52.9305029 2.57073604C55.1249994 2.57073604 54.9977154 5.91239221 52.9305029 5.91239221zM38.4345583.502120372L34.7611619.502120372C34.0932717.502120372 33.679749 1.07499862 33.679749 1.60017043L33.679749 10.5587596C33.679749 11.2591223 34.2361906 11.6570101 34.7611619 11.6570101 35.3336393 11.6570101 35.7790331 11.2593227 35.7790331 10.5587596L35.7790331 8.45827279 38.4347588 8.45827279C40.5019713 8.45827279 42.3627232 7.05814872 42.3627232 4.54393881 42.3623223 1.88660956 40.5017709.502120372 38.4345583.502120372zM38.4345583 6.46923468L35.7788327 6.46923468 35.7788327 2.50699381 38.4345583 2.50699381C39.4999355 2.50699381 40.3428162 3.42985297 40.3428162 4.54373836 40.3428162 5.53054019 39.4999355 6.46923468 38.4345583 6.46923468zM21.3305946 8.01287899C21.8553655 8.71304125 22.5709622 8.71304125 23.1434395 8.01287899L25.7833299 4.67142326 25.7833299 10.55896C25.7833299 11.2593227 26.2285232 11.6572105 26.8010006 11.6572105 27.3099362 11.6572105 27.7551295 11.2595232 27.7551295 10.55896L27.7551295 1.60037088C27.7551295.502320819 26.4670555.247752806 25.9422845.900208619L22.3165946 5.80134443 18.8179882 1.07539952C18.5475849.77312506 18.2771815.502521267 17.8161529.502521267 17.5615848.502521267 16.8620239.77312506 16.8620239 1.60057133L16.8620239 10.5591605C16.8620239 11.2595232 17.3072173 11.657411 17.8161529 11.657411 18.3886302 11.657411 18.9611076 11.2597236 18.9611076 10.5591605L18.9611076 4.67162371 21.3305946 8.01287899zM4.96247267 9.43645539L10.2312288 9.43645539C10.8187397 9.43645539 11.2952028 9.91271807 11.2952028 10.5004294L11.2952028 10.5004294C11.2952028 11.0881408 10.8189401 11.5644034 10.2312288 11.5644034L4.96247267 11.5644034C4.37496177 11.5644034 3.89849865 11.0881408 3.89849865 10.5004294L3.89849865 10.5004294C3.8986991 9.91271807 4.37496177 9.43645539 4.96247267 9.43645539z"/>
    <circle cx="1.264" cy="10.5" r="1.064" fill="#ED3947"/>
    <path fill="url(#logo_empressiacolor-a)" d="M1.26442128,4.99574692 L6.53297691,4.99574692 C7.12068826,4.99574692 7.59695094,5.47200959 7.59695094,6.05972094 L7.59695094,6.05972094 C7.59695094,6.64723185 7.12068826,7.12369497 6.53297691,7.12369497 L1.26442128,7.12369497 C0.676910378,7.12369497 0.200447254,6.64723185 0.200447254,6.05972094 L0.200447254,6.05972094 C0.200447254,5.47200959 0.67670993,4.99574692 1.26442128,4.99574692 Z"/>
    <path fill="#0C226E" d="M1.26442128,0.555038447 L10.2312288,0.555038447 C10.8187397,0.555038447 11.2952028,1.03130112 11.2952028,1.61901247 L11.2952028,1.61901247 C11.2952028,2.20652338 10.8189401,2.6829865 10.2312288,2.6829865 L1.26442128,2.6829865 C0.676910378,2.6829865 0.200447254,2.20672382 0.200447254,1.61901247 L0.200447254,1.61901247 C0.200447254,1.03150157 0.67670993,0.555038447 1.26442128,0.555038447 Z"/>
  </g>
</svg>
