<svg xmlns="http://www.w3.org/2000/svg" width="56" height="56" viewBox="0 0 56 56">
  <g fill="none">
    <path fill="#0C226E" d="M23.9396063,45.2641839 L50.418483,45.2641839 C53.3711019,45.2641839 55.7656345,47.6577091 55.7656345,50.6113354 L55.7656345,50.6113354 C55.7656345,53.5649617 53.3721092,55.9584869 50.418483,55.9584869 L23.9396063,55.9584869 C20.9869874,55.9584869 18.5924547,53.5649617 18.5924547,50.6113354 L18.5924547,50.6113354 C18.5934621,47.6577091 20.9869874,45.2641839 23.9396063,45.2641839 Z"/>
    <circle cx="5.35" cy="50.611" r="5.347" fill="#EC3A47"/>
    <path fill="#97E6F5" d="M5.35452746,22.9498809 L31.8323968,22.9498809 C34.7860231,22.9498809 37.1795483,25.3434061 37.1795483,28.2970324 L37.1795483,28.2970324 C37.1795483,31.2496513 34.7860231,33.6441839 31.8323968,33.6441839 L5.35452746,33.6441839 C2.40190857,33.6441839 0.00737594463,31.2496513 0.00737594463,28.2970324 L0.00737594463,28.2970324 C0.00737594463,25.3434061 2.40090119,22.9498809 5.35452746,22.9498809 Z"/>
    <path fill="#0C226E" d="M5.35452746,0.635577837 L50.418483,0.635577837 C53.3711019,0.635577837 55.7656345,3.02910308 55.7656345,5.98272935 L55.7656345,5.98272935 C55.7656345,8.93534824 53.3721092,11.3298809 50.418483,11.3298809 L5.35452746,11.3298809 C2.40190857,11.3298809 0.00737594463,8.93635562 0.00737594463,5.98272935 L0.00737594463,5.98272935 C0.00737594463,3.03011046 2.40090119,0.635577837 5.35452746,0.635577837 Z"/>
  </g>
</svg>
