<svg xmlns="http://www.w3.org/2000/svg" width="20" height="20" viewBox="0 0 20 20">
  <path fill="#FFF" fill-rule="evenodd" d="M10,0 C10.345,0 10.625,0.28 10.625,0.625 L10.625,19.375 C10.625,19.720625 10.345,20 10,20 C9.655,20 9.375,19.720625 9.375,19.375 L9.375,0.625 C9.375,0.28 9.655,0 10,0 Z M7.443125,2.5 C7.788125,2.5 8.068125,2.78 8.068125,3.125 C8.068125,3.47 7.788125,3.75 7.443125,3.75 L1.55,3.75 C1.384375,3.75 1.25,3.884375 1.25,4.05 L1.25,15.938125 C1.25,16.106875 1.3925,16.25 1.56125,16.25 L7.5,16.25 C7.845,16.25 8.125,16.529375 8.125,16.875 C8.125,17.220625 7.845,17.5 7.5,17.5 L1.56125,17.5 C0.700625,17.5 0,16.799375 0,15.93875 L0,4.05 C0,3.195625 0.695625,2.5 1.55,2.5 L7.443125,2.5 Z M18.18125,16.25 C18.49375,16.25 18.7545971,16.482438 18.7994412,16.7829639 L18.80625,16.875 C18.80625,17.1875 18.573812,17.4483471 18.2732861,17.4931912 L18.18125,17.5 C17.8375,17.5 17.55625,17.21875 17.55625,16.875 C17.55625,16.5625 17.788688,16.3016529 18.0892139,16.2568088 L18.18125,16.25 Z M16.30625,16.25 C16.61875,16.25 16.8795971,16.482438 16.9244412,16.7829639 L16.93125,16.875 C16.93125,17.1875 16.698812,17.4483471 16.3982861,17.4931912 L16.30625,17.5 C15.9625,17.5 15.68125,17.21875 15.68125,16.875 C15.68125,16.5625 15.913688,16.3016529 16.2142139,16.2568088 L16.30625,16.25 Z M14.43125,16.25 C14.74375,16.25 15.0045971,16.482438 15.0494412,16.7829639 L15.05625,16.875 C15.05625,17.1875 14.823812,17.4483471 14.5232861,17.4931912 L14.43125,17.5 C14.0875,17.5 13.80625,17.21875 13.80625,16.875 C13.80625,16.5625 14.038688,16.3016529 14.3392139,16.2568088 L14.43125,16.25 Z M12.55625,16.25 C12.86875,16.25 13.1295971,16.482438 13.1744412,16.7829639 L13.18125,16.875 C13.18125,17.1875 12.948812,17.4483471 12.6482861,17.4931912 L12.55625,17.5 C12.2125,17.5 11.93125,17.21875 11.93125,16.875 C11.93125,16.5625 12.163688,16.3016529 12.4642139,16.2568088 L12.55625,16.25 Z M19.375,15.16875 C19.6875,15.16875 19.9483471,15.401188 19.9931912,15.7017139 L20,15.79375 C20,16.1125 19.767562,16.3682335 19.4670361,16.4120962 L19.375,16.41875 C19.03125,16.41875 18.75,16.14375 18.75,15.79375 C18.75,15.48125 18.982438,15.2204029 19.2829639,15.1755588 L19.375,15.16875 Z M19.375,13.29375 C19.6875,13.29375 19.9483471,13.526188 19.9931912,13.8267139 L20,13.91875 C20,14.2375 19.767562,14.4932335 19.4670361,14.5370962 L19.375,14.54375 C19.03125,14.54375 18.75,14.26875 18.75,13.91875 C18.75,13.60625 18.982438,13.3454029 19.2829639,13.3005588 L19.375,13.29375 Z M19.375,11.41875 C19.6875,11.41875 19.9483471,11.651188 19.9931912,11.9517139 L20,12.04375 C20,12.3625 19.767562,12.6182335 19.4670361,12.6620962 L19.375,12.66875 C19.03125,12.66875 18.75,12.39375 18.75,12.04375 C18.75,11.73125 18.982438,11.4704029 19.2829639,11.4255588 L19.375,11.41875 Z M19.375,9.54375 C19.6875,9.54375 19.9483471,9.77618802 19.9931912,10.0814097 L20,10.175 C20,10.4875 19.767562,10.7431818 19.4670361,10.7870868 L19.375,10.79375 C19.03125,10.79375 18.75,10.51875 18.75,10.175 C18.75,9.85681818 18.982438,9.59545455 19.2829639,9.55056349 L19.375,9.54375 Z M19.375,7.675 C19.6875,7.675 19.9483471,7.90227273 19.9931912,8.2018595 L20,8.29375 C20,8.61193182 19.767562,8.87329545 19.4670361,8.91818651 L19.375,8.925 C19.03125,8.925 18.75,8.64375 18.75,8.29375 C18.75,7.98125 18.982438,7.72556818 19.2829639,7.68166322 L19.375,7.675 Z M19.375,5.79375 C19.6875,5.79375 19.9483471,6.02618802 19.9931912,6.33140965 L20,6.425 C20,6.7375 19.767562,6.99318182 19.4670361,7.03708678 L19.375,7.04375 C19.03125,7.04375 18.75,6.76875 18.75,6.425 C18.75,6.10681818 18.982438,5.84545455 19.2829639,5.80056349 L19.375,5.79375 Z M19.375,3.925 C19.6875,3.925 19.9483471,4.15227273 19.9931912,4.4518595 L20,4.54375 C20,4.86193182 19.767562,5.12329545 19.4670361,5.16818651 L19.375,5.175 C19.03125,5.175 18.75,4.89375 18.75,4.54375 C18.75,4.23125 18.982438,3.97556818 19.2829639,3.93166322 L19.375,3.925 Z M18.575,2.50625 L18.56875,2.50625 C18.88125,2.53465909 19.121436,2.78517562 19.1437406,3.08875376 L19.14375,3.18125 C19.115625,3.47375 18.895125,3.7055 18.6143812,3.748925 L18.51875,3.75625 C18.5,3.75625 18.480625,3.75 18.46875,3.75 L18.4625,3.75 C18.153125,3.721875 17.9196875,3.4760625 17.8943187,3.1765875 L17.89375,3.075 C17.925,2.73125 18.225,2.475 18.575,2.50625 Z M16.64375,2.5 C16.95625,2.5 17.2170971,2.73243802 17.2619412,3.03296394 L17.26875,3.125 C17.26875,3.4375 17.036312,3.69834711 16.7357861,3.74319121 L16.64375,3.75 C16.3,3.75 16.01875,3.46875 16.01875,3.125 C16.01875,2.8125 16.251188,2.55165289 16.5517139,2.50680879 L16.64375,2.5 Z M14.76875,2.5 C15.08125,2.5 15.3420971,2.73243802 15.3869412,3.03296394 L15.39375,3.125 C15.39375,3.4375 15.161312,3.69834711 14.8607861,3.74319121 L14.76875,3.75 C14.425,3.75 14.14375,3.46875 14.14375,3.125 C14.14375,2.8125 14.376188,2.55165289 14.6767139,2.50680879 L14.76875,2.5 Z M12.89375,2.5 C13.20625,2.5 13.4670971,2.73243802 13.5119412,3.03296394 L13.51875,3.125 C13.51875,3.4375 13.286312,3.69834711 12.9857861,3.74319121 L12.89375,3.75 C12.55,3.75 12.26875,3.46875 12.26875,3.125 C12.26875,2.8125 12.501188,2.55165289 12.8017139,2.50680879 L12.89375,2.5 Z"/>
</svg>
