<svg xmlns="http://www.w3.org/2000/svg" width="20" height="15" viewBox="0 0 20 15">
  <path fill="#FFF" d="M19.9913953,12.0172093 C24.6081395,12.0172093 28.5250775,15.1479845 29.9827907,19.5107752 C28.5250775,23.8735271 24.6081395,27.0043023 19.9913953,27.0043023 C15.3746512,27.0043023 11.4577132,23.8735659 10,19.5107752 C11.4577132,15.1479845 15.3746512,12.0172093 19.9913953,12.0172093 Z M19.9913953,14.5150775 C17.2323256,14.5150775 14.9956977,16.7517054 14.9956977,19.5107752 C14.9956977,22.2698062 17.2323256,24.5064729 19.9913953,24.5064729 C22.7504651,24.5064729 24.987093,22.2697674 24.987093,19.5107752 C24.987093,16.7517054 22.7504651,14.5150775 19.9913953,14.5150775 Z M21.7576357,17.7445349 C22.7331008,18.72 22.7331008,20.3015504 21.7576357,21.2770155 C20.7821705,22.2524806 19.2006202,22.2524806 18.225155,21.2770155 C17.2496899,20.3015504 17.2496899,18.72 18.225155,17.7445349 C19.2006202,16.7690698 20.7821705,16.7690698 21.7576357,17.7445349 Z" transform="translate(-10 -12)"/>
</svg>
