<?xml version="1.0" encoding="UTF-8"?>
<svg viewBox="0 0 40 40" version="1.1" xmlns="http://www.w3.org/2000/svg" xmlns:xlink="http://www.w3.org/1999/xlink">
    <title>69F13716-4711-453C-9D8C-53F07D32F899</title>
    <g id="Project-Page" stroke="none" stroke-width="1" fill="none" fill-rule="evenodd">
        <g id="01-00-Strona-Glowna" transform="translate(-208.000000, -3187.000000)">
            <g id="section--opinions" transform="translate(-304.000000, 2663.000000)">
                <g id="card-opinion" transform="translate(464.000000, 223.000000)">
                    <g id="icon" transform="translate(48.000000, 301.000000)">
                        <rect id="fill" fill="#4432FF" x="0" y="0" width="40" height="40" rx="20"></rect>
                        <path d="M19.9913953,12.0172093 C24.6081395,12.0172093 28.5250775,15.1479845 29.9827907,19.5107752 C28.5250775,23.8735271 24.6081395,27.0043023 19.9913953,27.0043023 C15.3746512,27.0043023 11.4577132,23.8735659 10,19.5107752 C11.4577132,15.1479845 15.3746512,12.0172093 19.9913953,12.0172093 Z M19.9913953,14.5150775 C17.2323256,14.5150775 14.9956977,16.7517054 14.9956977,19.5107752 C14.9956977,22.2698062 17.2323256,24.5064729 19.9913953,24.5064729 C22.7504651,24.5064729 24.987093,22.2697674 24.987093,19.5107752 C24.987093,16.7517054 22.7504651,14.5150775 19.9913953,14.5150775 Z M21.7576357,17.7445349 C22.7331008,18.72 22.7331008,20.3015504 21.7576357,21.2770155 C20.7821705,22.2524806 19.2006202,22.2524806 18.225155,21.2770155 C17.2496899,20.3015504 17.2496899,18.72 18.225155,17.7445349 C19.2006202,16.7690698 20.7821705,16.7690698 21.7576357,17.7445349 Z" id="icons/ui/eye" fill="#FFFFFF" fill-rule="nonzero"></path>
                    </g>
                </g>
            </g>
        </g>
    </g>
</svg>