<svg xmlns="http://www.w3.org/2000/svg" width="20" height="20" viewBox="0 0 20 20">
  <path fill="#FFF" d="M17,0.25 C18.5187831,0.25 19.75,1.48121694 19.75,3 L19.75,3 L19.75,17 C19.75,18.5187831 18.5187831,19.75 17,19.75 L17,19.75 L3,19.75 C1.48121694,19.75 0.25,18.5187831 0.25,17 L0.25,17 L0.25,3 C0.25,1.48121694 1.48121694,0.25 3,0.25 L3,0.25 Z M14,9.061 L4.81,18.25 L17,18.25 C17.6472087,18.25 18.1795339,17.7581253 18.2435464,17.1278052 L18.25,17 L18.25,13.311 L14,9.061 Z M17,1.75 L3,1.75 C2.30964406,1.75 1.75,2.30964406 1.75,3 L1.75,3 L1.75,17 C1.75,17.5943533 2.16481567,18.0918212 2.7207289,18.2186857 L13.4696699,7.46966991 C13.7359365,7.20340335 14.1526002,7.1791973 14.4462117,7.39705176 L14.5303301,7.46966991 L18.25,11.189 L18.25,3 C18.25,2.35279131 17.7581253,1.8204661 17.1278052,1.75645361 L17,1.75 Z M6.5,4.25 C7.74264069,4.25 8.75,5.25735931 8.75,6.5 C8.75,7.74264069 7.74264069,8.75 6.5,8.75 C5.25735931,8.75 4.25,7.74264069 4.25,6.5 C4.25,5.25735931 5.25735931,4.25 6.5,4.25 Z M6.5,5.75 C6.08578644,5.75 5.75,6.08578644 5.75,6.5 C5.75,6.91421356 6.08578644,7.25 6.5,7.25 C6.91421356,7.25 7.25,6.91421356 7.25,6.5 C7.25,6.08578644 6.91421356,5.75 6.5,5.75 Z"/>
</svg>
