<svg xmlns="http://www.w3.org/2000/svg" width="20" height="20" viewBox="0 0 20 20">
  <path fill="#4432FF" d="M10,0.25 C15.3847763,0.25 19.75,4.61522369 19.75,10 C19.75,15.3847763 15.3847763,19.75 10,19.75 C4.61522369,19.75 0.25,15.3847763 0.25,10 C0.25,4.61522369 4.61522369,0.25 10,0.25 Z M5.76800315,10.7507968 C5.94811299,14.489163 7.45657302,17.4538303 9.25076269,18.1128878 L9.25,10.75 Z M14.2319969,10.7507968 L10.75,10.75 L10.7502426,18.1125183 C12.5439904,17.4527228 14.0519206,14.4884648 14.2319969,10.7507968 Z M1.78371505,10.7509182 C2.04060329,13.5980542 3.74397028,16.0279919 6.15325121,17.3001664 C5.07351748,15.6622286 4.37949864,13.3378102 4.2663533,10.7507664 Z M18.2162849,10.7509182 L15.7336467,10.7507664 C15.6205014,13.3378102 14.9264825,15.6622286 13.8466883,17.3004607 C16.2560297,16.0279919 17.9593967,13.5980542 18.2162849,10.7509182 Z M18.2163749,9.25007911 C17.9597945,6.40251326 16.256311,3.97215667 13.8467488,2.69983358 C14.9266218,4.33798276 15.6206804,6.66278951 15.7336905,9.25023478 Z M14.2320449,9.25020063 C14.0521889,5.51206258 12.54415,2.54733588 10.7502426,1.88748172 L10.75,9.25 Z M6.15331173,2.69953934 L6.04161114,2.75988718 C3.69117834,4.04767083 2.03622471,6.44669311 1.78362513,9.25007911 L4.26630954,9.25023478 C4.37931959,6.66278951 5.07337818,4.33798276 6.15331173,2.69953934 Z M9.25076269,1.88711221 C7.45641345,2.54622835 5.94784467,5.51136434 5.76795512,9.25020063 L9.25,9.25 Z"/>
</svg>
