<svg xmlns="http://www.w3.org/2000/svg" width="12" height="12" viewBox="0 0 12 12">
  <path fill="#4432FF" fill-rule="evenodd" d="M11.9791846,6.00743494 C11.9812713,8.30843805 10.6621883,10.4062895 8.58752663,11.4014772 C6.51286494,12.3966649 4.05112412,12.1124245 2.25784387,10.670632 C2.13000059,10.5689026 2.05094268,10.4180111 2.04007485,10.2549938 C2.02920703,10.0919764 2.08753547,9.93192585 2.20074349,9.81412639 L2.47197026,9.54289963 C2.67892158,9.33639153 3.00715165,9.31600457 3.23806691,9.49531599 C5.08983372,10.9613657 7.76611333,10.7168595 9.32156291,8.93952475 C10.8770125,7.16219004 10.7645786,4.47711751 9.06598766,2.83604142 C7.36739668,1.19496533 4.68004494,1.17505401 2.95732342,2.79078067 L4.18022305,4.0136803 C4.28854242,4.12568302 4.31984302,4.29139156 4.25984149,4.43518833 C4.19983996,4.57898511 4.06004061,4.67329942 3.90423792,4.67509294 L0.416356877,4.67509294 C0.205351719,4.67248774 0.0356817091,4.50068667 0.0356817091,4.28966543 L0.0356817091,0.773234201 C0.0348189244,0.617290193 0.12800673,0.476189367 0.271771665,0.415766423 C0.415536599,0.35534348 0.581545472,0.387506571 0.692342007,0.497249071 L1.88193309,1.68684015 C3.6107789,0.0349279662 6.15832632,-0.42644135 8.35669917,0.514238459 C10.555072,1.45491827 11.9803663,3.61625943 11.9791846,6.00743494 Z"/>
</svg>
