<svg xmlns="http://www.w3.org/2000/svg" width="108" height="20" viewBox="0 0 108 20">
  <path fill="#01C3A5" fill-rule="evenodd" d="M106 0C107.104569-2.02906125e-16 108 .8954305 108 2L108 18C108 19.1045695 107.104569 20 106 20L90 20C88.8954305 20 88 19.1045695 88 18L88 2C88 .8954305 88.8954305 2.02906125e-16 90 0L106 0zM98.3621253 4.21568421C98.2202305 3.92810526 97.7486516 3.92810526 97.6067568 4.21568421L97.6067568 4.21568421 95.9857042 7.50073684 92.3608621 8.02705263C92.2021253 8.05021053 92.0703358 8.16178947 92.0206516 8.31378947 91.9709674 8.46578947 92.0126516 8.63336842 92.1271779 8.74536842L92.1271779 8.74536842 94.7503358 11.3015789 94.1309674 14.9125263C94.10402 15.0704211 94.1688621 15.23 94.2985463 15.3243158 94.4282305 15.4190526 94.6004411 15.4312632 94.7419147 15.3563158L94.7419147 15.3563158 97.9844411 13.6518947 101.227388 15.3567368C101.288862 15.3891579 101.356231 15.4051579 101.423178 15.4051579 101.510336 15.4051579 101.597494 15.3782105 101.670757 15.3247368 101.800441 15.2304211 101.865283 15.0708421 101.838336 14.9129474L101.838336 14.9129474 101.218967 11.302 103.841704 8.74536842C103.956231 8.63294737 103.997915 8.46621053 103.948231 8.31378947 103.898546 8.16136842 103.766757 8.05021053 103.60802 8.02705263L103.60802 8.02705263 99.9831779 7.50073684zM84 0C85.1045695-2.02906125e-16 86 .8954305 86 2L86 18C86 19.1045695 85.1045695 20 84 20L68 20C66.8954305 20 66 19.1045695 66 18L66 2C66 .8954305 66.8954305 2.02906125e-16 68 0L84 0zM76.3621253 4.21568421C76.2202305 3.92810526 75.7486516 3.92810526 75.6067568 4.21568421L75.6067568 4.21568421 73.9857042 7.50073684 70.3608621 8.02705263C70.2021253 8.05021053 70.0703358 8.16178947 70.0206516 8.31378947 69.9709674 8.46578947 70.0126516 8.63336842 70.1271779 8.74536842L70.1271779 8.74536842 72.7503358 11.3015789 72.1309674 14.9125263C72.10402 15.0704211 72.1688621 15.23 72.2985463 15.3243158 72.4282305 15.4190526 72.6004411 15.4312632 72.7419147 15.3563158L72.7419147 15.3563158 75.9844411 13.6518947 79.2273884 15.3567368C79.2888621 15.3891579 79.3562305 15.4051579 79.4231779 15.4051579 79.5103358 15.4051579 79.5974937 15.3782105 79.6707568 15.3247368 79.8004411 15.2304211 79.8652832 15.0708421 79.8383358 14.9129474L79.8383358 14.9129474 79.2189674 11.302 81.8417042 8.74536842C81.9562305 8.63294737 81.9979147 8.46621053 81.9482305 8.31378947 81.8985463 8.16136842 81.7667568 8.05021053 81.60802 8.02705263L81.60802 8.02705263 77.9831779 7.50073684zM62 0C63.1045695-2.02906125e-16 64 .8954305 64 2L64 18C64 19.1045695 63.1045695 20 62 20L46 20C44.8954305 20 44 19.1045695 44 18L44 2C44 .8954305 44.8954305 2.02906125e-16 46 0L62 0zM54.3621253 4.21568421C54.2202305 3.92810526 53.7486516 3.92810526 53.6067568 4.21568421L53.6067568 4.21568421 51.9857042 7.50073684 48.3608621 8.02705263C48.2021253 8.05021053 48.0703358 8.16178947 48.0206516 8.31378947 47.9709674 8.46578947 48.0126516 8.63336842 48.1271779 8.74536842L48.1271779 8.74536842 50.7503358 11.3015789 50.1309674 14.9125263C50.10402 15.0704211 50.1688621 15.23 50.2985463 15.3243158 50.4282305 15.4190526 50.6004411 15.4312632 50.7419147 15.3563158L50.7419147 15.3563158 53.9844411 13.6518947 57.2273884 15.3567368C57.2888621 15.3891579 57.3562305 15.4051579 57.4231779 15.4051579 57.5103358 15.4051579 57.5974937 15.3782105 57.6707568 15.3247368 57.8004411 15.2304211 57.8652832 15.0708421 57.8383358 14.9129474L57.8383358 14.9129474 57.2189674 11.302 59.8417042 8.74536842C59.9562305 8.63294737 59.9979147 8.46621053 59.9482305 8.31378947 59.8985463 8.16136842 59.7667568 8.05021053 59.60802 8.02705263L59.60802 8.02705263 55.9831779 7.50073684zM40 0C41.1045695-2.02906125e-16 42 .8954305 42 2L42 18C42 19.1045695 41.1045695 20 40 20L24 20C22.8954305 20 22 19.1045695 22 18L22 2C22 .8954305 22.8954305 2.02906125e-16 24 0L40 0zM32.3621253 4.21568421C32.2202305 3.92810526 31.7486516 3.92810526 31.6067568 4.21568421L31.6067568 4.21568421 29.9857042 7.50073684 26.3608621 8.02705263C26.2021253 8.05021053 26.0703358 8.16178947 26.0206516 8.31378947 25.9709674 8.46578947 26.0126516 8.63336842 26.1271779 8.74536842L26.1271779 8.74536842 28.7503358 11.3015789 28.1309674 14.9125263C28.10402 15.0704211 28.1688621 15.23 28.2985463 15.3243158 28.4282305 15.4190526 28.6004411 15.4312632 28.7419147 15.3563158L28.7419147 15.3563158 31.9844411 13.6518947 35.2273884 15.3567368C35.2888621 15.3891579 35.3562305 15.4051579 35.4231779 15.4051579 35.5103358 15.4051579 35.5974937 15.3782105 35.6707568 15.3247368 35.8004411 15.2304211 35.8652832 15.0708421 35.8383358 14.9129474L35.8383358 14.9129474 35.2189674 11.302 37.8417042 8.74536842C37.9562305 8.63294737 37.9979147 8.46621053 37.9482305 8.31378947 37.8985463 8.16136842 37.7667568 8.05021053 37.60802 8.02705263L37.60802 8.02705263 33.9831779 7.50073684zM18 0C19.1045695-2.02906125e-16 20 .8954305 20 2L20 18C20 19.1045695 19.1045695 20 18 20L2 20C.8954305 20 1.3527075e-16 19.1045695 0 18L0 2C-1.3527075e-16.8954305.8954305 2.02906125e-16 2 0L18 0zM10.3621253 4.21568421C10.2202305 3.92810526 9.74865158 3.92810526 9.60675684 4.21568421L9.60675684 4.21568421 7.98570421 7.50073684 4.36086211 8.02705263C4.20212527 8.05021053 4.07033579 8.16178947 4.02065158 8.31378947 3.97096737 8.46578947 4.01265158 8.63336842 4.1271779 8.74536842L4.1271779 8.74536842 6.75033579 11.3015789 6.13096737 14.9125263C6.10402 15.0704211 6.16886211 15.23 6.29854632 15.3243158 6.42823053 15.4190526 6.60044106 15.4312632 6.74191474 15.3563158L6.74191474 15.3563158 9.98444106 13.6518947 13.2273884 15.3567368C13.2888621 15.3891579 13.3562305 15.4051579 13.4231779 15.4051579 13.5103358 15.4051579 13.5974937 15.3782105 13.6707568 15.3247368 13.8004411 15.2304211 13.8652832 15.0708421 13.8383358 14.9129474L13.8383358 14.9129474 13.2189674 11.302 15.8417042 8.74536842C15.9562305 8.63294737 15.9979147 8.46621053 15.9482305 8.31378947 15.8985463 8.16136842 15.7667568 8.05021053 15.60802 8.02705263L15.60802 8.02705263 11.9831779 7.50073684z"/>
</svg>
