<svg xmlns="http://www.w3.org/2000/svg" width="20" height="20" viewBox="0 0 20 20">
  <path fill="#14CAFF" fill-rule="evenodd" d="M1559,26 C1560.10457,26 1561,26.8954305 1561,28 L1561,44 C1561,45.1045695 1560.10457,46 1559,46 L1543,46 C1541.89543,46 1541,45.1045695 1541,44 L1541,28 C1541,26.8954305 1541.89543,26 1543,26 L1559,26 Z M1551.36213,30.2156842 C1551.22023,29.9281053 1550.74865,29.9281053 1550.60676,30.2156842 L1550.60676,30.2156842 L1548.9857,33.5007368 L1545.36086,34.0270526 C1545.20213,34.0502105 1545.07034,34.1617895 1545.02065,34.3137895 C1544.97097,34.4657895 1545.01265,34.6333684 1545.12718,34.7453684 L1545.12718,34.7453684 L1547.75034,37.3015789 L1547.13097,40.9125263 C1547.10402,41.0704211 1547.16886,41.23 1547.29855,41.3243158 C1547.42823,41.4190526 1547.60044,41.4312632 1547.74191,41.3563158 L1547.74191,41.3563158 L1550.98444,39.6518947 L1554.22739,41.3567368 C1554.28886,41.3891579 1554.35623,41.4051579 1554.42318,41.4051579 C1554.51034,41.4051579 1554.59749,41.3782105 1554.67076,41.3247368 C1554.80044,41.2304211 1554.86528,41.0708421 1554.83834,40.9129474 L1554.83834,40.9129474 L1554.21897,37.302 L1556.8417,34.7453684 C1556.95623,34.6329474 1556.99791,34.4662105 1556.94823,34.3137895 C1556.89855,34.1613684 1556.76676,34.0502105 1556.60802,34.0270526 L1556.60802,34.0270526 L1552.98318,33.5007368 Z" transform="translate(-1541 -26)"/>
</svg>
