<svg xmlns="http://www.w3.org/2000/svg" width="20" height="20" viewBox="0 0 20 20">
  <path fill="#0E0E0E" fill-rule="evenodd" d="M1594,26 C1595.10457,26 1596,26.8954305 1596,28 L1596,44 C1596,45.1045695 1595.10457,46 1594,46 L1578,46 C1576.89543,46 1576,45.1045695 1576,44 L1576,28 C1576,26.8954305 1576.89543,26 1578,26 L1594,26 Z M1586.36213,30.2156842 C1586.22023,29.9281053 1585.74865,29.9281053 1585.60676,30.2156842 L1585.60676,30.2156842 L1583.9857,33.5007368 L1580.36086,34.0270526 C1580.20213,34.0502105 1580.07034,34.1617895 1580.02065,34.3137895 C1579.97097,34.4657895 1580.01265,34.6333684 1580.12718,34.7453684 L1580.12718,34.7453684 L1582.75034,37.3015789 L1582.13097,40.9125263 C1582.10402,41.0704211 1582.16886,41.23 1582.29855,41.3243158 C1582.42823,41.4190526 1582.60044,41.4312632 1582.74191,41.3563158 L1582.74191,41.3563158 L1585.98444,39.6518947 L1589.22739,41.3567368 C1589.28886,41.3891579 1589.35623,41.4051579 1589.42318,41.4051579 C1589.51034,41.4051579 1589.59749,41.3782105 1589.67076,41.3247368 C1589.80044,41.2304211 1589.86528,41.0708421 1589.83834,40.9129474 L1589.83834,40.9129474 L1589.21897,37.302 L1591.8417,34.7453684 C1591.95623,34.6329474 1591.99791,34.4662105 1591.94823,34.3137895 C1591.89855,34.1613684 1591.76676,34.0502105 1591.60802,34.0270526 L1591.60802,34.0270526 L1587.98318,33.5007368 Z" opacity=".08" transform="translate(-1576 -26)"/>
</svg>
