<svg xmlns="http://www.w3.org/2000/svg" width="64" height="64" viewBox="0 0 64 64">
  <g fill="none" fill-rule="evenodd">
    <path fill="#F4F7F9" d="M20.5110816,-8.28672246e-16 L43.4889184,8.28672246e-16 C50.6210683,-4.81482439e-16 53.2073582,0.742604889 55.8147656,2.13706163 C58.422173,3.53151837 60.4684816,5.57782696 61.8629384,8.18523437 C63.2573951,10.7926418 64,13.3789317 64,20.5110816 L64,43.4889184 C64,50.6210683 63.2573951,53.2073582 61.8629384,55.8147656 C60.4684816,58.422173 58.422173,60.4684816 55.8147656,61.8629384 C53.2073582,63.2573951 50.6210683,64 43.4889184,64 L20.5110816,64 C13.3789317,64 10.7926418,63.2573951 8.18523437,61.8629384 C5.57782696,60.4684816 3.53151837,58.422173 2.13706163,55.8147656 C0.742604889,53.2073582 3.20988293e-16,50.6210683 -5.52448164e-16,43.4889184 L5.52448164e-16,20.5110816 C-3.20988293e-16,13.3789317 0.742604889,10.7926418 2.13706163,8.18523437 C3.53151837,5.57782696 5.57782696,3.53151837 8.18523437,2.13706163 C10.7926418,0.742604889 13.3789317,4.81482439e-16 20.5110816,-8.28672246e-16 Z"/>
    <g fill="#0E0E0E" fill-rule="nonzero" transform="translate(22 22)">
      <path d="M9,2 C9.55228475,2 10,2.44771525 10,3 C10,3.51283584 9.61395981,3.93550716 9.11662113,3.99327227 L9,4 L2,4 C1.48716416,4 1.06449284,4.38604019 1.00672773,4.88337887 L1,5 L1,19 C1,19.5128358 1.38604019,19.9355072 1.88337887,19.9932723 L2,20 L16,20 C16.5128358,20 16.9355072,19.6139598 16.9932723,19.1166211 L17,19 L17,12 C17,11.4477153 17.4477153,11 18,11 C18.5128358,11 18.9355072,11.3860402 18.9932723,11.8833789 L19,12 L19,19 C19,20.5976809 17.75108,21.9036609 16.1762728,21.9949073 L16,22 L2,22 C0.402319117,22 -0.903660879,20.75108 -0.994907307,19.1762728 L-1,19 L-1,5 C-1,3.40231912 0.248919964,2.09633912 1.82372721,2.00509269 L2,2 L9,2 Z"/>
      <path d="M15.7928932,0.792893204 L6.29289322,10.2928932 C6.1647344,10.421052 6.07381561,10.5816319 6.0298575,10.7574644 L5.0298575,14.7574644 C4.84676238,15.4898448 5.51015516,16.1532376 6.24253563,15.9701425 L10.2425356,14.9701425 C10.4183681,14.9261844 10.578948,14.8352656 10.7071068,14.7071068 L20.2071068,5.20710678 C21.4260582,3.98815535 21.4260582,2.01184467 20.2071068,0.792893237 C18.9881553,-0.426058146 17.0118447,-0.426058166 15.7928932,0.792893204 Z M18.8800269,2.30490927 C19.2285618,2.7450473 19.1995172,3.38626917 18.7928932,3.79289323 L9.488,13.096 L7.374,13.625 L7.903,11.511 L17.2071068,2.20710678 C17.6450096,1.76920398 18.3549904,1.76920398 18.7928932,2.20710683 L18.8800269,2.30490927 Z"/>
    </g>
  </g>
</svg>
