<svg xmlns="http://www.w3.org/2000/svg" width="64" height="64" viewBox="0 0 64 64">
  <g fill="none" fill-rule="evenodd">
    <path fill="#F4F7F9" d="M20.5110816,-8.28672246e-16 L43.4889184,8.28672246e-16 C50.6210683,-4.81482439e-16 53.2073582,0.742604889 55.8147656,2.13706163 C58.422173,3.53151837 60.4684816,5.57782696 61.8629384,8.18523437 C63.2573951,10.7926418 64,13.3789317 64,20.5110816 L64,43.4889184 C64,50.6210683 63.2573951,53.2073582 61.8629384,55.8147656 C60.4684816,58.422173 58.422173,60.4684816 55.8147656,61.8629384 C53.2073582,63.2573951 50.6210683,64 43.4889184,64 L20.5110816,64 C13.3789317,64 10.7926418,63.2573951 8.18523437,61.8629384 C5.57782696,60.4684816 3.53151837,58.422173 2.13706163,55.8147656 C0.742604889,53.2073582 3.20988293e-16,50.6210683 -5.52448164e-16,43.4889184 L5.52448164e-16,20.5110816 C-3.20988293e-16,13.3789317 0.742604889,10.7926418 2.13706163,8.18523437 C3.53151837,5.57782696 5.57782696,3.53151837 8.18523437,2.13706163 C10.7926418,0.742604889 13.3789317,4.81482439e-16 20.5110816,-8.28672246e-16 Z"/>
    <path fill="#0E0E0E" fill-rule="nonzero" d="M10.2428932,0.852893208 C12.1963834,-1.10059688 15.3636166,-1.10059685 17.3171067,0.852893261 C19.2114002,2.7471867 19.268803,5.78277765 17.4889646,7.74659117 L17.3167222,7.92749118 L8.11710678,17.1171068 C6.94509957,18.289114 5.04490043,18.289114 3.87289322,17.1171068 C2.74776629,15.9919799 2.70276122,14.1957513 3.73824675,13.0165677 L3.87331002,12.8724767 L12.36331,4.39247666 C12.7540644,4.00218256 13.3872292,4.00255567 13.7775233,4.39331002 C14.1377948,4.75400635 14.1651901,5.32125364 13.8599341,5.71336504 L13.77669,5.80752334 L5.28710678,14.2871068 C4.89614815,14.6780654 4.89614815,15.3119346 5.28710678,15.7028932 C5.64799167,16.0637781 6.21585359,16.0915385 6.60888361,15.785872 L6.70327783,15.7025088 L15.9028932,6.51289323 C17.0753347,5.34045167 17.0753347,3.43954836 15.9028932,2.26710682 C14.7773493,1.14156295 12.9804551,1.09654118 11.8012031,2.13204152 L11.6571068,2.26710678 L2.46710678,11.4571068 C0.51318231,13.4110313 0.51318231,16.5789687 2.46710678,18.5328932 C4.36182142,20.4276079 7.39808733,20.4850235 9.3619869,18.70514 L9.54289322,18.5328932 L18.7328932,9.34289322 C19.1234175,8.95236893 19.7565825,8.95236893 20.1471068,9.34289322 C20.5075907,9.70337718 20.5353203,10.2706082 20.2302954,10.6628994 L20.1471068,10.7571068 L10.9571068,19.9471068 C8.22213373,22.6820798 3.78786627,22.6820798 1.05289322,19.9471068 C-1.61992136,17.2742922 -1.68066714,12.9785462 0.870655861,10.231962 L1.05289322,10.0428932 L10.2428932,0.852893208 Z" transform="translate(22 22)"/>
  </g>
</svg>
