<svg xmlns="http://www.w3.org/2000/svg" width="64" height="64" viewBox="0 0 64 64">
  <g fill="none" fill-rule="evenodd">
    <path fill="#F4F7F9" d="M20.5110816,-8.28672246e-16 L43.4889184,8.28672246e-16 C50.6210683,-4.81482439e-16 53.2073582,0.742604889 55.8147656,2.13706163 C58.422173,3.53151837 60.4684816,5.57782696 61.8629384,8.18523437 C63.2573951,10.7926418 64,13.3789317 64,20.5110816 L64,43.4889184 C64,50.6210683 63.2573951,53.2073582 61.8629384,55.8147656 C60.4684816,58.422173 58.422173,60.4684816 55.8147656,61.8629384 C53.2073582,63.2573951 50.6210683,64 43.4889184,64 L20.5110816,64 C13.3789317,64 10.7926418,63.2573951 8.18523437,61.8629384 C5.57782696,60.4684816 3.53151837,58.422173 2.13706163,55.8147656 C0.742604889,53.2073582 3.20988293e-16,50.6210683 -5.52448164e-16,43.4889184 L5.52448164e-16,20.5110816 C-3.20988293e-16,13.3789317 0.742604889,10.7926418 2.13706163,8.18523437 C3.53151837,5.57782696 5.57782696,3.53151837 8.18523437,2.13706163 C10.7926418,0.742604889 13.3789317,4.81482439e-16 20.5110816,-8.28672246e-16 Z"/>
    <g fill="#0E0E0E" fill-rule="nonzero" transform="translate(22 22)">
      <path d="M10,-1 C3.92486775,-1 -1,3.92486775 -1,10 C-1,16.0751322 3.92486775,21 10,21 C16.0751322,21 21,16.0751322 21,10 C21,3.92486775 16.0751322,-1 10,-1 Z M10,1 C14.9705627,1 19,5.02943725 19,10 C19,14.9705627 14.9705627,19 10,19 C5.02943725,19 1,14.9705627 1,10 C1,5.02943725 5.02943725,1 10,1 Z"/>
      <path d="M10,3 C10.5128358,3 10.9355072,3.38604019 10.9932723,3.88337887 L11,4 L11,9.382 L14.4472136,11.1055728 C14.9059079,11.33492 15.1113142,11.8692292 14.9405643,12.3398958 L14.8944272,12.4472136 C14.66508,12.9059079 14.1307708,13.1113142 13.6601042,12.9405643 L13.5527864,12.8944272 L9.5527864,10.8944272 C9.25164505,10.7438565 9.0490966,10.4535358 9.00780363,10.1248553 L9,10 L9,4 C9,3.44771525 9.44771525,3 10,3 Z"/>
    </g>
  </g>
</svg>
