<svg xmlns="http://www.w3.org/2000/svg" width="64" height="64" viewBox="0 0 64 64">
  <g fill="none" fill-rule="evenodd">
    <path fill="#F4F7F9" d="M20.5110816,-8.28672246e-16 L43.4889184,8.28672246e-16 C50.6210683,-4.81482439e-16 53.2073582,0.742604889 55.8147656,2.13706163 C58.422173,3.53151837 60.4684816,5.57782696 61.8629384,8.18523437 C63.2573951,10.7926418 64,13.3789317 64,20.5110816 L64,43.4889184 C64,50.6210683 63.2573951,53.2073582 61.8629384,55.8147656 C60.4684816,58.422173 58.422173,60.4684816 55.8147656,61.8629384 C53.2073582,63.2573951 50.6210683,64 43.4889184,64 L20.5110816,64 C13.3789317,64 10.7926418,63.2573951 8.18523437,61.8629384 C5.57782696,60.4684816 3.53151837,58.422173 2.13706163,55.8147656 C0.742604889,53.2073582 3.20988293e-16,50.6210683 -5.52448164e-16,43.4889184 L5.52448164e-16,20.5110816 C-3.20988293e-16,13.3789317 0.742604889,10.7926418 2.13706163,8.18523437 C3.53151837,5.57782696 5.57782696,3.53151837 8.18523437,2.13706163 C10.7926418,0.742604889 13.3789317,4.81482439e-16 20.5110816,-8.28672246e-16 Z"/>
    <g fill="#0E0E0E" fill-rule="nonzero" transform="translate(23 22)">
      <path d="M16,1 L2,1 C0.343145751,1 -1,2.34314575 -1,4 L-1,18 C-1,19.6568542 0.343145751,21 2,21 L16,21 C17.6568542,21 19,19.6568542 19,18 L19,4 C19,2.34314575 17.6568542,1 16,1 Z M2,3 L16,3 C16.5522847,3 17,3.44771525 17,4 L17,18 C17,18.5522847 16.5522847,19 16,19 L2,19 C1.44771525,19 1,18.5522847 1,18 L1,4 C1,3.44771525 1.44771525,3 2,3 Z"/>
      <path d="M13-1C13.5128358-1 13.9355072-.61395981 13.9932723-.116621125L14 0 14 4C14 4.55228475 13.5522847 5 13 5 12.4871642 5 12.0644928 4.61395981 12.0067277 4.11662113L12 4 12 0C12-.55228475 12.4477153-1 13-1zM5-1C5.51283584-1 5.93550716-.61395981 5.99327227-.116621125L6 0 6 4C6 4.55228475 5.55228475 5 5 5 4.48716416 5 4.06449284 4.61395981 4.00672773 4.11662113L4 4 4 0C4-.55228475 4.44771525-1 5-1zM18 7C18.5522847 7 19 7.44771525 19 8 19 8.51283584 18.6139598 8.93550716 18.1166211 8.99327227L18 9 0 9C-.55228475 9-1 8.55228475-1 8-1 7.48716416-.61395981 7.06449284-.116621125 7.00672773L0 7 18 7z"/>
    </g>
  </g>
</svg>
