<svg xmlns="http://www.w3.org/2000/svg" width="64" height="64" viewBox="0 0 64 64">
  <g fill="none" fill-rule="evenodd">
    <path fill="#F4F7F9" d="M20.5110816,-8.28672246e-16 L43.4889184,8.28672246e-16 C50.6210683,-4.81482439e-16 53.2073582,0.742604889 55.8147656,2.13706163 C58.422173,3.53151837 60.4684816,5.57782696 61.8629384,8.18523437 C63.2573951,10.7926418 64,13.3789317 64,20.5110816 L64,43.4889184 C64,50.6210683 63.2573951,53.2073582 61.8629384,55.8147656 C60.4684816,58.422173 58.422173,60.4684816 55.8147656,61.8629384 C53.2073582,63.2573951 50.6210683,64 43.4889184,64 L20.5110816,64 C13.3789317,64 10.7926418,63.2573951 8.18523437,61.8629384 C5.57782696,60.4684816 3.53151837,58.422173 2.13706163,55.8147656 C0.742604889,53.2073582 3.20988293e-16,50.6210683 -5.52448164e-16,43.4889184 L5.52448164e-16,20.5110816 C-3.20988293e-16,13.3789317 0.742604889,10.7926418 2.13706163,8.18523437 C3.53151837,5.57782696 5.57782696,3.53151837 8.18523437,2.13706163 C10.7926418,0.742604889 13.3789317,4.81482439e-16 20.5110816,-8.28672246e-16 Z"/>
    <g fill="#0E0E0E" fill-rule="nonzero" transform="translate(21 25)">
      <path d="M21.4187618,1.18626653 L14.4187618,6.18626653 C13.8604127,6.5850873 13.8604127,7.4149127 14.4187618,7.81373347 L21.4187618,12.8137335 C22.0806303,13.2864967 23,12.8133726 23,12 L23,2 C23,1.18662744 22.0806303,0.713503333 21.4187618,1.18626653 Z M21,3.942 L21,10.057 L16.72,7 L21,3.942 Z"/>
      <path d="M13,-1 L2,-1 C0.343145751,-1 -1,0.343145751 -1,2 L-1,12 C-1,13.6568542 0.343145751,15 2,15 L13,15 C14.6568542,15 16,13.6568542 16,12 L16,2 C16,0.343145751 14.6568542,-1 13,-1 Z M2,1 L13,1 C13.5522847,1 14,1.44771525 14,2 L14,12 C14,12.5522847 13.5522847,13 13,13 L2,13 C1.44771525,13 1,12.5522847 1,12 L1,2 C1,1.44771525 1.44771525,1 2,1 Z"/>
    </g>
  </g>
</svg>
