<svg xmlns="http://www.w3.org/2000/svg" width="32" height="32" viewBox="0 0 32 32">
  <path fill="#4432FF" d="M22.5949139,0.0946380193 C24.2989958,0.174646007 25.4590515,0.441872684 26.4799005,0.838712301 C27.5359513,1.24515288 28.425594,1.79560783 29.3152367,2.68369649 C30.1288758,3.48361635 30.7585061,4.45121694 31.1601253,5.51917956 C31.5553443,6.53848132 31.8241572,7.70019729 31.9041611,9.40436742 C31.977216,11.0614014 31.9989327,11.6206448 32.000114,15.6367745 L32.0001657,16.0002259 C32.0001657,20.3478599 31.9841649,20.8903141 31.9041611,22.5960844 C31.8241572,24.3002545 31.5553443,25.4603703 31.1601253,26.4812722 C30.7596261,27.5498589 30.1298359,28.5176355 29.3152367,29.3167553 C28.5151983,30.1301165 27.5476318,30.7597794 26.4799005,31.1617395 C25.4606516,31.556979 24.2989958,31.8258058 22.5949139,31.9058138 C21.6540895,31.9472969 21.067178,31.9722276 20.0004327,31.9862449 L19.9995893,22.0008249 L23.9997814,22.0008249 L25.9998775,17.0003257 L19.9995893,17.0003257 L19.9995893,12.9999264 C19.9995893,11.8958161 20.8956323,10.9997267 21.9996853,10.9997267 L23.9997814,10.9997267 L23.9997814,5.99922748 L19.9995893,5.99922748 C16.6854301,5.99922748 13.999301,8.68549566 13.999301,11.9998265 L13.999301,17.0003257 L9.99910888,17.0003257 L9.99910888,22.0008249 L13.999301,22.0008249 L13.9978071,32 C11.4198457,31.994019 10.8034703,31.971464 9.40388029,31.9058138 C7.69979843,31.8258058 6.53974271,31.556979 5.51889367,31.1617395 C4.45057035,30.7608995 3.48284387,30.1310766 2.68355748,29.3167553 C1.86977439,28.5169955 1.24017614,27.5493789 0.838668857,26.4812722 C0.441849796,25.4619705 0.17463696,24.3002545 0.0946331171,22.5960844 C0.023726854,20.9877867 0.00118340378,20.4136533 -0.00116145987,16.7091864 L-0.00120579553,15.2912654 C0.000666154448,11.5867985 0.0192009223,11.0126651 0.0946331171,9.40436742 C0.17463696,7.69859713 0.441849796,6.54008148 0.838668857,5.51917956 C1.23907209,4.45056088 1.86879834,3.48268825 2.68355748,2.68369649 C3.48306788,1.86958321 4.45073036,1.23992035 5.51889367,0.838712301 C6.53974271,0.441872684 7.69819835,0.174646007 9.40388029,0.0946380193 C11.0120947,0.0237280831 11.5861983,0.00118346509 15.2904733,-0.00116152004 L16.7083209,-0.00120585799 C20.4125959,0.000666188956 20.9866995,0.019201917 22.5949139,0.0946380193 Z"/>
</svg>
