<svg xmlns="http://www.w3.org/2000/svg" width="32" height="32" viewBox="0 0 32 32">
  <path fill="#4432FF" d="M16,0 C20.3472,0 20.8896,0.016 22.5952,0.096 C24.2992,0.176 25.4592,0.4432 26.48,0.84 C27.536,1.2464 28.4256,1.7968 29.3152,2.6848 C30.1288,3.48464 30.7584,4.452144 31.16,5.52 C31.5552,6.5392 31.824,7.7008 31.904,9.4048 C31.9792,11.1104 32,11.6528 32,16 C32,20.3472 31.984,20.8896 31.904,22.5952 C31.824,24.2992 31.5552,25.4592 31.16,26.48 C30.75952,27.54848 30.12976,28.51616 29.3152,29.3152 C28.5152,30.12848 27.54768,30.75808 26.48,31.16 C25.4608,31.5552 24.2992,31.824 22.5952,31.904 C20.8896,31.9792 20.3472,32 16,32 C11.6528,32 11.1104,31.984 9.4048,31.904 C7.7008,31.824 6.5408,31.5552 5.52,31.16 C4.451728,30.7592 3.484048,30.12944 2.6848,29.3152 C1.871056,28.51552 1.241488,27.548 0.84,26.48 C0.4432,25.4608 0.176,24.2992 0.096,22.5952 C0.0208,20.8896 0,20.3472 0,16 C0,11.6528 0.016,11.1104 0.096,9.4048 C0.176,7.6992 0.4432,6.5408 0.84,5.52 C1.240384,4.451488 1.87008,3.483712 2.6848,2.6848 C3.484272,1.870768 4.451888,1.241168 5.52,0.84 C6.5408,0.4432 7.6992,0.176 9.4048,0.096 C11.1104,0.0208 11.6528,0 16,0 Z M16,8 C13.87824,8 11.84344,8.842848 10.343152,10.343152 C8.842848,11.84344 8,13.87824 8,16 C8,18.12176 8.842848,20.15664 10.343152,21.6568 C11.84344,23.15712 13.87824,24 16,24 C18.12176,24 20.15664,23.15712 21.6568,21.6568 C23.15712,20.15664 24,18.12176 24,16 C24,13.87824 23.15712,11.84344 21.6568,10.343152 C20.15664,8.842848 18.12176,8 16,8 Z M26.4,7.6 C26.4,7.069568 26.18928,6.560864 25.81424,6.185792 C25.4392,5.81072 24.9304,5.6 24.4,5.6 C23.8696,5.6 23.3608,5.81072 22.98576,6.185792 C22.61072,6.560864 22.4,7.069568 22.4,7.6 C22.4,8.130432 22.61072,8.639136 22.98576,9.014208 C23.3608,9.38928 23.8696,9.6 24.4,9.6 C24.9304,9.6 25.4392,9.38928 25.81424,9.014208 C26.18928,8.639136 26.4,8.130432 26.4,7.6 Z M16,11.2 C17.27296,11.2 18.49392,11.705712 19.39408,12.605888 C20.29424,13.50608 20.8,14.72704 20.8,16 C20.8,17.27296 20.29424,18.49392 19.39408,19.39408 C18.49392,20.29424 17.27296,20.8 16,20.8 C14.72704,20.8 13.50608,20.29424 12.605888,19.39408 C11.705712,18.49392 11.2,17.27296 11.2,16 C11.2,14.72704 11.705712,13.50608 12.605888,12.605888 C13.50608,11.705712 14.72704,11.2 16,11.2 Z"/>
</svg>
